<mxfile host="app.diagrams.net" agent="Mozilla/5.0 (Windows NT 10.0; Win64; x64) AppleWebKit/537.36 (KHTML, like Gecko) Chrome/133.0.0.0 Safari/537.36" version="26.0.16">
  <diagram name="Page-1" id="0XFKrjFu_hUlhidK62WB">
    <mxGraphModel dx="794" dy="454" grid="1" gridSize="10" guides="1" tooltips="1" connect="1" arrows="1" fold="1" page="1" pageScale="1" pageWidth="850" pageHeight="1100" math="0" shadow="0">
      <root>
        <mxCell id="0" />
        <mxCell id="1" parent="0" />
        <mxCell id="OjLhgQTwC74IY-pdukbC-1" value="User (Tyrone)" style="shape=umlLifeline;perimeter=lifelinePerimeter;whiteSpace=wrap;container=1;dropTarget=0;collapsible=0;recursiveResize=0;outlineConnect=0;portConstraint=eastwest;newEdgeStyle={&quot;edgeStyle&quot;:&quot;elbowEdgeStyle&quot;,&quot;elbow&quot;:&quot;vertical&quot;,&quot;curved&quot;:0,&quot;rounded&quot;:0};size=65;" vertex="1" parent="1">
          <mxGeometry x="20" y="20" width="150" height="970" as="geometry" />
        </mxCell>
        <mxCell id="OjLhgQTwC74IY-pdukbC-2" value="App Class" style="shape=umlLifeline;perimeter=lifelinePerimeter;whiteSpace=wrap;container=1;dropTarget=0;collapsible=0;recursiveResize=0;outlineConnect=0;portConstraint=eastwest;newEdgeStyle={&quot;edgeStyle&quot;:&quot;elbowEdgeStyle&quot;,&quot;elbow&quot;:&quot;vertical&quot;,&quot;curved&quot;:0,&quot;rounded&quot;:0};size=65;" vertex="1" parent="1">
          <mxGeometry x="296" y="20" width="150" height="970" as="geometry" />
        </mxCell>
        <mxCell id="OjLhgQTwC74IY-pdukbC-3" value="BouncyCastle Library" style="shape=umlLifeline;perimeter=lifelinePerimeter;whiteSpace=wrap;container=1;dropTarget=0;collapsible=0;recursiveResize=0;outlineConnect=0;portConstraint=eastwest;newEdgeStyle={&quot;edgeStyle&quot;:&quot;elbowEdgeStyle&quot;,&quot;elbow&quot;:&quot;vertical&quot;,&quot;curved&quot;:0,&quot;rounded&quot;:0};size=65;" vertex="1" parent="1">
          <mxGeometry x="735" y="20" width="167" height="970" as="geometry" />
        </mxCell>
        <mxCell id="OjLhgQTwC74IY-pdukbC-4" value="User (Muliza)" style="shape=umlLifeline;perimeter=lifelinePerimeter;whiteSpace=wrap;container=1;dropTarget=0;collapsible=0;recursiveResize=0;outlineConnect=0;portConstraint=eastwest;newEdgeStyle={&quot;edgeStyle&quot;:&quot;elbowEdgeStyle&quot;,&quot;elbow&quot;:&quot;vertical&quot;,&quot;curved&quot;:0,&quot;rounded&quot;:0};size=65;" vertex="1" parent="1">
          <mxGeometry x="1194" y="20" width="150" height="970" as="geometry" />
        </mxCell>
        <mxCell id="OjLhgQTwC74IY-pdukbC-5" value="Provides message for signing" style="verticalAlign=bottom;edgeStyle=elbowEdgeStyle;elbow=vertical;curved=0;rounded=0;endArrow=block;" edge="1" parent="1" source="OjLhgQTwC74IY-pdukbC-1" target="OjLhgQTwC74IY-pdukbC-2">
          <mxGeometry relative="1" as="geometry">
            <Array as="points">
              <mxPoint x="242" y="127" />
            </Array>
          </mxGeometry>
        </mxCell>
        <mxCell id="OjLhgQTwC74IY-pdukbC-6" value="Preprocesses message (context + message)" style="curved=1;endArrow=block;rounded=0;" edge="1" parent="1" source="OjLhgQTwC74IY-pdukbC-2" target="OjLhgQTwC74IY-pdukbC-2">
          <mxGeometry relative="1" as="geometry">
            <Array as="points">
              <mxPoint x="422" y="179" />
              <mxPoint x="422" y="209" />
            </Array>
          </mxGeometry>
        </mxCell>
        <mxCell id="OjLhgQTwC74IY-pdukbC-7" value="Calls generateKeyPair()" style="verticalAlign=bottom;edgeStyle=elbowEdgeStyle;elbow=vertical;curved=0;rounded=0;endArrow=block;" edge="1" parent="1" source="OjLhgQTwC74IY-pdukbC-2" target="OjLhgQTwC74IY-pdukbC-3">
          <mxGeometry relative="1" as="geometry">
            <Array as="points">
              <mxPoint x="603" y="261" />
            </Array>
          </mxGeometry>
        </mxCell>
        <mxCell id="OjLhgQTwC74IY-pdukbC-8" value="Returns key pair (privateKey, publicKey)" style="verticalAlign=bottom;edgeStyle=elbowEdgeStyle;elbow=vertical;curved=0;rounded=0;dashed=1;dashPattern=2 3;endArrow=block;" edge="1" parent="1" source="OjLhgQTwC74IY-pdukbC-3" target="OjLhgQTwC74IY-pdukbC-2">
          <mxGeometry relative="1" as="geometry">
            <Array as="points">
              <mxPoint x="606" y="313" />
            </Array>
          </mxGeometry>
        </mxCell>
        <mxCell id="OjLhgQTwC74IY-pdukbC-9" value="Calls serializeKey(publicKey)" style="verticalAlign=bottom;edgeStyle=elbowEdgeStyle;elbow=vertical;curved=0;rounded=0;endArrow=block;" edge="1" parent="1" source="OjLhgQTwC74IY-pdukbC-2" target="OjLhgQTwC74IY-pdukbC-3">
          <mxGeometry relative="1" as="geometry">
            <Array as="points">
              <mxPoint x="603" y="365" />
            </Array>
          </mxGeometry>
        </mxCell>
        <mxCell id="OjLhgQTwC74IY-pdukbC-10" value="Returns serialized verifying key" style="verticalAlign=bottom;edgeStyle=elbowEdgeStyle;elbow=vertical;curved=0;rounded=0;dashed=1;dashPattern=2 3;endArrow=block;" edge="1" parent="1" source="OjLhgQTwC74IY-pdukbC-3" target="OjLhgQTwC74IY-pdukbC-2">
          <mxGeometry relative="1" as="geometry">
            <Array as="points">
              <mxPoint x="606" y="417" />
            </Array>
          </mxGeometry>
        </mxCell>
        <mxCell id="OjLhgQTwC74IY-pdukbC-11" value="Calls signMessage(privateKey, preprocessedMessage)" style="verticalAlign=bottom;edgeStyle=elbowEdgeStyle;elbow=vertical;curved=0;rounded=0;endArrow=block;" edge="1" parent="1" source="OjLhgQTwC74IY-pdukbC-2" target="OjLhgQTwC74IY-pdukbC-3">
          <mxGeometry relative="1" as="geometry">
            <Array as="points">
              <mxPoint x="603" y="469" />
            </Array>
          </mxGeometry>
        </mxCell>
        <mxCell id="OjLhgQTwC74IY-pdukbC-12" value="Returns signature" style="verticalAlign=bottom;edgeStyle=elbowEdgeStyle;elbow=vertical;curved=0;rounded=0;dashed=1;dashPattern=2 3;endArrow=block;" edge="1" parent="1" source="OjLhgQTwC74IY-pdukbC-3" target="OjLhgQTwC74IY-pdukbC-2">
          <mxGeometry relative="1" as="geometry">
            <Array as="points">
              <mxPoint x="606" y="521" />
            </Array>
          </mxGeometry>
        </mxCell>
        <mxCell id="OjLhgQTwC74IY-pdukbC-13" value="Sends (message, serializedKey, signature)" style="verticalAlign=bottom;edgeStyle=elbowEdgeStyle;elbow=vertical;curved=0;rounded=0;endArrow=block;" edge="1" parent="1" source="OjLhgQTwC74IY-pdukbC-2" target="OjLhgQTwC74IY-pdukbC-4">
          <mxGeometry relative="1" as="geometry">
            <Array as="points">
              <mxPoint x="829" y="573" />
            </Array>
          </mxGeometry>
        </mxCell>
        <mxCell id="OjLhgQTwC74IY-pdukbC-14" value="Calls deserializeKey(serializedKey)" style="verticalAlign=bottom;edgeStyle=elbowEdgeStyle;elbow=vertical;curved=0;rounded=0;endArrow=block;" edge="1" parent="1" source="OjLhgQTwC74IY-pdukbC-4" target="OjLhgQTwC74IY-pdukbC-3">
          <mxGeometry relative="1" as="geometry">
            <Array as="points">
              <mxPoint x="1055" y="625" />
            </Array>
          </mxGeometry>
        </mxCell>
        <mxCell id="OjLhgQTwC74IY-pdukbC-15" value="Returns verifying key" style="verticalAlign=bottom;edgeStyle=elbowEdgeStyle;elbow=vertical;curved=0;rounded=0;dashed=1;dashPattern=2 3;endArrow=block;" edge="1" parent="1" source="OjLhgQTwC74IY-pdukbC-3" target="OjLhgQTwC74IY-pdukbC-4">
          <mxGeometry relative="1" as="geometry">
            <Array as="points">
              <mxPoint x="1052" y="677" />
            </Array>
          </mxGeometry>
        </mxCell>
        <mxCell id="OjLhgQTwC74IY-pdukbC-16" value="Calls verifySignature(verifyingKey, message, signature)" style="verticalAlign=bottom;edgeStyle=elbowEdgeStyle;elbow=vertical;curved=0;rounded=0;endArrow=block;" edge="1" parent="1" source="OjLhgQTwC74IY-pdukbC-4" target="OjLhgQTwC74IY-pdukbC-3">
          <mxGeometry relative="1" as="geometry">
            <Array as="points">
              <mxPoint x="1055" y="729" />
            </Array>
          </mxGeometry>
        </mxCell>
        <mxCell id="OjLhgQTwC74IY-pdukbC-17" value="Returns verification result" style="verticalAlign=bottom;edgeStyle=elbowEdgeStyle;elbow=vertical;curved=0;rounded=0;dashed=1;dashPattern=2 3;endArrow=block;" edge="1" parent="1" source="OjLhgQTwC74IY-pdukbC-3" target="OjLhgQTwC74IY-pdukbC-4">
          <mxGeometry relative="1" as="geometry">
            <Array as="points">
              <mxPoint x="1052" y="781" />
            </Array>
          </mxGeometry>
        </mxCell>
        <mxCell id="OjLhgQTwC74IY-pdukbC-18" value="Calls dropKey(verifyingKey)" style="verticalAlign=bottom;edgeStyle=elbowEdgeStyle;elbow=vertical;curved=0;rounded=0;endArrow=block;" edge="1" parent="1" source="OjLhgQTwC74IY-pdukbC-4" target="OjLhgQTwC74IY-pdukbC-3">
          <mxGeometry relative="1" as="geometry">
            <Array as="points">
              <mxPoint x="1055" y="833" />
            </Array>
          </mxGeometry>
        </mxCell>
        <mxCell id="OjLhgQTwC74IY-pdukbC-19" value="Calls dropKey(privateKey)" style="verticalAlign=bottom;edgeStyle=elbowEdgeStyle;elbow=vertical;curved=0;rounded=0;endArrow=block;" edge="1" parent="1" source="OjLhgQTwC74IY-pdukbC-2" target="OjLhgQTwC74IY-pdukbC-3">
          <mxGeometry relative="1" as="geometry">
            <Array as="points">
              <mxPoint x="603" y="885" />
            </Array>
          </mxGeometry>
        </mxCell>
      </root>
    </mxGraphModel>
  </diagram>
</mxfile>